<?xml version="1.0" encoding="utf-8"?>
<!-- Designed by Vexels.com - 2016 All Rights Reserved - https://vexels.com/terms-and-conditions/  -->

<svg version="1.1" id="Layer_1" xmlns="http://www.w3.org/2000/svg" xmlns:xlink="http://www.w3.org/1999/xlink" x="0px" y="0px"
	 width="1200px" height="1200px" viewBox="0 0 1200 1200" enable-background="new 0 0 1200 1200" xml:space="preserve">
<g>
	<g>
		<path fill="#244F68" d="M1035.819,519.74c0,259.425-210.304,469.739-469.739,469.739S96.341,779.165,96.341,519.74
			C96.341,260.295,306.645,50,566.08,50S1035.819,260.295,1035.819,519.74z"/>
		<g>
			<defs>
				<path id="SVGID_1_" d="M1035.819,519.74c0,259.425-210.304,469.739-469.739,469.739S96.341,779.165,96.341,519.74
					C96.341,260.295,306.645,50,566.08,50S1035.819,260.295,1035.819,519.74z"/>
			</defs>
			<clipPath id="SVGID_2_">
				<use xlink:href="#SVGID_1_"  overflow="visible"/>
			</clipPath>
			<linearGradient id="SVGID_3_" gradientUnits="userSpaceOnUse" x1="1046.1428" y1="995.4169" x2="594.1432" y2="620.9026">
				<stop  offset="0" style="stop-color:#FFFFFF"/>
				<stop  offset="0.0718" style="stop-color:#DFDFDF"/>
				<stop  offset="0.2156" style="stop-color:#A5A5A5"/>
				<stop  offset="0.3593" style="stop-color:#727272"/>
				<stop  offset="0.4998" style="stop-color:#494949"/>
				<stop  offset="0.6362" style="stop-color:#292929"/>
				<stop  offset="0.7674" style="stop-color:#121212"/>
				<stop  offset="0.8912" style="stop-color:#050505"/>
				<stop  offset="1" style="stop-color:#000000"/>
			</linearGradient>
			<polygon opacity="0.5" clip-path="url(#SVGID_2_)" fill="url(#SVGID_3_)" points="392.402,772.458 769.944,1150 
				1101.713,1109.591 1103.659,751.992 642.375,277.432 541.633,292.614 475.937,327.106 471.008,419.087 453.821,495.598 
				436.664,527.424 475.147,568.337 506.281,628.729 516.391,553.758 531.825,507.887 522.456,629.578 513.601,643.585 			"/>
		</g>
	</g>
	<path opacity="0.2" d="M623.775,734.439c0,0,43.126,3.299,88.632-12.861l-5.69-13.176
		C706.717,708.402,696.84,727.545,623.775,734.439z"/>
	<path opacity="0.6" d="M540.408,726.882c0,0,50.441,4.634,68.491-31.934C608.899,694.948,586.952,776.527,540.408,726.882z"/>
	<path opacity="0.6" d="M547.812,630.625c0,0-34.883-18.767-32.394-37.475c0,0,16.446-66.288,59.237-45.822
		C574.654,547.328,525.369,580.744,547.812,630.625z"/>
	<g>
		<path fill="#11B4BB" d="M688.77,473.73l-205.217,0.514c-0.809-5.887-1.441-11.932-1.441-18.115l-0.139-51.739
			c-0.139-57.982,36.172-105.039,81.154-105.118c44.865-0.178,81.382,46.582,81.628,104.347l48.579-0.099v-2.805
			c-0.207-85.896-58.555-155.375-130.345-155.138c-71.762,0.158-129.792,69.893-129.555,155.77l0.158,73.924
			c-33.594,4.523-59.552,33.03-59.444,67.899l0.425,182.301c0.109,37.87,30.907,68.531,68.817,68.432l246.19-0.651
			c37.89-0.06,68.531-30.878,68.442-68.748l-0.445-182.301C757.479,504.311,726.671,473.611,688.77,473.73z M592.602,630.606
			l12.515,64.066c0.069,24.377-15.784,44.192-35.422,44.252c-19.597,0.039-35.569-19.676-35.638-44.074l13.7-64.995
			c-13.473-7.488-22.719-21.692-22.748-38.187c-0.07-24.279,19.607-44.074,43.906-44.113c24.279-0.06,44.034,19.597,44.094,43.935
			c0.059,15.646-8.179,29.297-20.447,37.14C592.562,629.342,592.602,629.855,592.602,630.606z"/>
	</g>
	<path opacity="0.5" fill="#FFFFFF" d="M432.9,489.85c0,0-46.503,6.795-46.503,71.454v72.62c0,0-7.824-127.065,66.931-132.735
		C453.328,501.19,434.036,501.19,432.9,489.85z"/>
	<path opacity="0.5" fill="#FFFFFF" d="M449.929,341.252c0,0,30.621-91.882,124.774-91.882c0,0-27.697,4.701-23.154,25.109
		C551.55,274.479,491.03,274.933,449.929,341.252z"/>
	<path opacity="0.4" d="M392.076,736c0,0,2.262,46.504,66.921,46.504h229.151c0,0,55.581-10.194,55.581-48.756
		c0,0-12.486,23.37-58.426,25.287h-225.17C460.133,759.035,406.824,755.281,392.076,736z"/>
	<path opacity="0.5" fill="#FFFFFF" d="M680.206,489.85c0,0,55.206-9.582,63.523,44.231v46.504
		C743.729,580.586,736.914,507.985,680.206,489.85z"/>
</g>
</svg>
